<svg xmlns="http://www.w3.org/2000/svg" viewBox="0 0 96 96">
  <rect width="96" height="96" rx="21" fill="#1656E0"/>
  <g transform="translate(8 8) scale(0.833)">
    <path d="M14 38 a8 8 0 0 1 8 -8 h52 a8 8 0 0 1 8 8 v20 a8 8 0 0 1 -8 8 h-12 l-8 8 a1.6 1.6 0 0 1 -2.7 -1.3 v-6.7 h-29.3 a8 8 0 0 1 -8 -8 z" fill="#FFFFFF"/>
    <path d="M38 14 a8 8 0 0 1 8 -8 h20 a8 8 0 0 1 8 8 v52 a8 8 0 0 1 -8 8 h-6.7 v6.7 a1.6 1.6 0 0 1 -2.7 1.3 l-8 -8 h-2.6 a8 8 0 0 1 -8 -8 z" fill="#FFFFFF" opacity="0.92"/>
  </g>
</svg>
