<?xml version="1.0" encoding="UTF-8"?>
<svg width="64" height="64" viewBox="0 0 96 96" xmlns="http://www.w3.org/2000/svg" data-om-id="jsx:/https:/019dd36f-887a-7dc9-aacc-e347a83d808c.claudeusercontent.com/v1/design/projects/019dd36f-887a-7dc9-aacc-e347a83d808c/serve/logos/logos.jsx:1639:44:5" style="display: block;"><path d="M14 38 a8 8 0 0 1 8 -8 h52 a8 8 0 0 1 8 8 v20 a8 8 0 0 1 -8 8 h-12 l-8 8 a1.6 1.6 0 0 1 -2.7 -1.3 v-6.7 h-29.3 a8 8 0 0 1 -8 -8 z" fill="#FFFFFF" data-om-id="jsx:/https:/019dd36f-887a-7dc9-aacc-e347a83d808c.claudeusercontent.com/v1/design/projects/019dd36f-887a-7dc9-aacc-e347a83d808c/serve/logos/logos.jsx:1930:47:7"/><path d="M38 14 a8 8 0 0 1 8 -8 h20 a8 8 0 0 1 8 8 v52 a8 8 0 0 1 -8 8 h-6.7 v6.7 a1.6 1.6 0 0 1 -2.7 1.3 l-8 -8 h-2.6 a8 8 0 0 1 -8 -8 z" fill="#FF7A6B" data-om-id="jsx:/https:/019dd36f-887a-7dc9-aacc-e347a83d808c.claudeusercontent.com/v1/design/projects/019dd36f-887a-7dc9-aacc-e347a83d808c/serve/logos/logos.jsx:2400:65:7"/><rect x="46" y="46" width="4" height="4" rx="0.8" fill="#FFFFFF" opacity="0.0" data-om-id="jsx:/https:/019dd36f-887a-7dc9-aacc-e347a83d808c.claudeusercontent.com/v1/design/projects/019dd36f-887a-7dc9-aacc-e347a83d808c/serve/logos/logos.jsx:2855:83:7"/></svg>